<?xml version="1.0" encoding="utf-8"?>
<!-- Generator: Adobe Illustrator 16.0.1, SVG Export Plug-In . SVG Version: 6.00 Build 0)  -->
<!DOCTYPE svg PUBLIC "-//W3C//DTD SVG 1.1//EN" "http://www.w3.org/Graphics/SVG/1.1/DTD/svg11.dtd">
<svg version="1.1" id="Layer_1" xmlns="http://www.w3.org/2000/svg" xmlns:xlink="http://www.w3.org/1999/xlink" x="0px" y="0px"
	 width="64px" height="64px" viewBox="0 0 64 64" enable-background="new 0 0 64 64" xml:space="preserve">
<g id="Layer_2" display="none">
	<circle display="inline" fill="#FFFFFF" stroke="#272525" stroke-miterlimit="10" cx="277" cy="364.5" r="147.5"/>
	<line display="inline" fill="none" stroke="#272525" stroke-miterlimit="10" x1="277" y1="364.5" x2="277" y2="54"/>
	<line display="inline" fill="none" stroke="#272525" stroke-miterlimit="10" x1="277" y1="364.5" x2="187.883" y2="149.352"/>
	<line display="inline" fill="none" stroke="#272525" stroke-miterlimit="10" x1="277" y1="364.5" x2="132.917" y2="249.525"/>
	<line display="inline" fill="none" stroke="#272525" stroke-miterlimit="10" x1="366.117" y1="149.352" x2="277" y2="364.5"/>
	<line display="inline" fill="none" stroke="#272525" stroke-miterlimit="10" x1="277" y1="364.5" x2="421.084" y2="249.525"/>
	<line display="inline" fill="none" stroke="#272525" stroke-miterlimit="10" x1="277" y1="364.5" x2="307.288" y2="212.233"/>
	<line display="inline" fill="none" stroke="#272525" stroke-miterlimit="10" x1="277" y1="364.5" x2="321.559" y2="295.738"/>
	<line display="inline" fill="none" stroke="#272525" stroke-miterlimit="10" x1="277.001" y1="364.5" x2="488.972" y2="259.264"/>
	<line display="inline" fill="none" stroke="#272525" stroke-miterlimit="10" x1="277" y1="364.5" x2="87.908" y2="270.621"/>
	<line display="inline" fill="none" stroke="#272525" stroke-miterlimit="10" x1="277" y1="364.5" x2="246.712" y2="212.233"/>
	<line display="inline" fill="none" stroke="#272525" stroke-miterlimit="10" x1="277" y1="364.5" x2="232.441" y2="295.738"/>
	<circle display="inline" fill="none" stroke="#272525" stroke-miterlimit="10" cx="277" cy="364.5" r="60.732"/>
</g>
<g id="Layer_1_1_">
	<g>
		<g>
			<path fill="#AAE100" d="M32,0C14.327,0,0,14.327,0,32c0,16.69,12.777,30.393,29.083,31.866L3.587,39.383l21.669,12.489
				L14.312,19.837l15.077,30.356l2.312-48.961l2.312,48.961l15.077-30.356L38.146,51.873l21.669-12.489L34.849,63.873
				C51.187,62.43,64,48.713,64,32C64,14.327,49.673,0,32,0z"/>
		</g>
	</g>
	<path fill="#FFFFFF" d="M38.146,51.873l10.944-32.035L34.013,50.194L31.701,1.232l-2.312,48.961L14.312,19.837l10.944,32.035
		L3.587,39.383l25.497,24.483C30.044,63.953,31.017,64,32,64c0.96,0,1.91-0.045,2.849-0.127l24.966-24.489L38.146,51.873z"/>
</g>
</svg>
